<svg width="477" height="543" viewBox="0 0 477 543" fill="none" xmlns="http://www.w3.org/2000/svg">
<path fill-rule="evenodd" clip-rule="evenodd" d="M233.078 36.8424C235.186 33.9101 238.244 31.7974 241.732 30.8627L243.875 30.2884C246.1 29.6925 248.464 29.9118 250.54 30.9068C253.08 32.1236 254.961 34.3893 255.689 37.1092L256.239 39.1613C256.79 41.2188 256.874 43.3736 256.484 45.4676L255.958 48.2875C255.542 50.5205 254.844 52.6918 253.883 54.7496L181.733 209.131L158.766 197.731L229.402 42.6972C230.015 41.3519 230.758 40.0699 231.621 38.8696L233.078 36.8424ZM138.934 294.389C142.533 296.071 146.458 296.853 150.377 296.704L152.579 307.467C153.363 311.297 153.743 315.239 153.711 319.154C153.638 328.277 151.311 337.319 146.949 345.314C142.295 353.844 135.478 360.999 127.183 366.061L102.327 381.226C100.678 382.232 98.8943 382.996 97.029 383.496L94.6049 384.146C87.7012 385.996 80.3854 383.25 76.4038 377.314C75.3806 375.789 74.6159 374.105 74.1405 372.331L67.311 346.843C65.1225 338.675 64.9203 330.102 66.7213 321.841C69.1074 310.895 74.9012 300.987 83.2705 293.54L85.2178 291.807C88.1523 289.196 91.3321 286.874 94.713 284.875L107.111 277.541C109.049 279.741 111.431 281.535 114.123 282.793L138.934 294.389ZM145.515 204.433C146.88 204.067 148.332 204.212 149.597 204.84L181.878 220.864C183.378 221.608 184.486 222.962 184.92 224.58L185.192 225.597C185.712 227.535 185.499 229.596 184.596 231.387L177.751 244.961L132.799 223.15L139.951 208.627C140.926 206.648 142.707 205.185 144.838 204.614L145.515 204.433ZM128.184 232.52L173.048 254.288L166.221 267.826L120.817 247.479L128.184 232.52ZM116.2 256.855L161.513 277.162L159.951 280.261C158.576 282.987 156.103 284.998 153.154 285.788C149.888 286.663 146.419 286.358 143.356 284.927L118.545 273.331C116.284 272.274 114.449 270.48 113.343 268.242C112.474 266.485 112.472 264.423 113.338 262.665L116.2 256.855Z" fill="#E5E5E5"/>
<path fill-rule="evenodd" clip-rule="evenodd" d="M189.774 222.521L189.502 221.504C188.68 218.438 186.581 215.873 183.738 214.462L214.932 147.715C227.637 145.197 240.534 143.715 253.497 143.287L269.586 142.756C285.019 142.247 300.432 144.269 315.211 148.743C332.017 153.831 347.727 162.004 361.539 172.846L370.908 180.2C384.566 190.921 396.452 203.722 406.133 218.135L406.656 218.914C416.477 233.538 423.816 249.684 428.375 266.7C432.687 282.791 434.459 299.458 433.626 316.097L433.16 325.42C432.423 340.136 429.409 354.649 424.225 368.442C418.166 384.561 409.237 399.449 397.869 412.384L381.863 430.597C370.757 443.234 358.345 454.659 344.832 464.68C326.626 478.182 306.587 489.017 285.319 496.856L280.202 498.742C268.308 503.126 256.024 506.368 243.517 508.425L229.346 510.754C215.751 512.989 201.869 512.831 188.328 510.287L183.623 509.403C176.125 507.994 168.854 505.564 162.015 502.18L154.295 498.36C145.882 494.198 138.748 487.842 133.646 479.963C127.459 470.41 124.567 459.096 125.41 447.745L125.465 447.007C126.026 439.454 128.159 432.101 131.728 425.421L132.166 424.601C137.193 415.191 144.687 407.327 153.844 401.853L180.453 385.947L196.537 374.378C204.774 368.453 211.323 360.482 215.536 351.252L218.992 343.683C222.384 336.251 223.083 327.87 220.969 319.98C219.258 313.596 215.784 307.824 210.943 303.325L206.832 299.503C199.483 292.672 190.396 287.995 180.567 285.984L167.255 283.26L163.146 282.606C163.515 282.058 163.851 281.485 164.151 280.888L168.176 272.908L179.636 250.181L188.797 232.015C190.278 229.078 190.626 225.698 189.774 222.521ZM108.835 257.325C105.421 253.105 102.898 248.187 101.473 242.867C99.9252 237.092 99.7244 231.037 100.886 225.171L101.813 220.487C104.02 209.343 109.619 199.156 117.844 191.32C120.205 189.071 122.762 187.036 125.483 185.239L135.573 178.577C145.945 171.729 156.945 165.921 168.412 161.226L151.457 198.439C149.052 197.245 146.295 196.97 143.701 197.665L143.025 197.846C139.44 198.807 136.443 201.267 134.804 204.596L125.331 223.832L113.277 248.306L108.835 257.325ZM297.027 259.11C314.161 254.519 324.33 236.906 319.739 219.772C315.147 202.637 297.535 192.469 280.4 197.06C263.266 201.651 253.097 219.263 257.689 236.398C262.28 253.533 279.892 263.701 297.027 259.11ZM380.234 297.315C385.272 316.116 374.115 335.44 355.314 340.478C336.514 345.516 317.189 334.359 312.152 315.558C307.114 296.758 318.271 277.433 337.072 272.395C355.872 267.358 375.197 278.515 380.234 297.315ZM325.789 425.055C342.924 420.464 353.092 402.851 348.501 385.717C343.91 368.582 326.297 358.414 309.163 363.005C292.028 367.596 281.86 385.208 286.451 402.343C291.042 419.477 308.654 429.646 325.789 425.055ZM268.324 431.216C272.915 448.35 262.747 465.962 245.612 470.554C228.478 475.145 210.865 464.976 206.274 447.842C201.683 430.707 211.851 413.095 228.986 408.504C246.121 403.912 263.733 414.081 268.324 431.216Z" fill="#E5E5E5"/>
</svg>
