<svg width="206" height="69" viewBox="0 0 206 69" fill="none" xmlns="http://www.w3.org/2000/svg">
<path d="M87.2069 38.3075C87.2069 38.0028 87.16 37.7294 87.0663 37.4872C86.9803 37.2372 86.8163 37.0106 86.5741 36.8075C86.3319 36.5966 85.9921 36.3895 85.5546 36.1864C85.1171 35.9833 84.5507 35.7723 83.8553 35.5536C83.0819 35.3036 82.3475 35.0223 81.6522 34.7098C80.9647 34.3973 80.3553 34.0341 79.8241 33.62C79.3007 33.1981 78.8866 32.7098 78.5819 32.1552C78.285 31.6005 78.1366 30.9559 78.1366 30.2216C78.1366 29.5106 78.2928 28.8661 78.6053 28.288C78.9178 27.702 79.3553 27.202 79.9178 26.788C80.4803 26.3661 81.1444 26.0419 81.91 25.8153C82.6835 25.5887 83.5311 25.4755 84.453 25.4755C85.7108 25.4755 86.8085 25.702 87.746 26.1552C88.6835 26.6083 89.41 27.2294 89.9257 28.0184C90.4491 28.8075 90.7108 29.7098 90.7108 30.7255H87.2186C87.2186 30.2255 87.1132 29.788 86.9022 29.413C86.6991 29.0302 86.3866 28.7294 85.9647 28.5106C85.5507 28.2919 85.0272 28.1825 84.3944 28.1825C83.785 28.1825 83.2772 28.2762 82.871 28.4637C82.4647 28.6434 82.16 28.8895 81.9569 29.202C81.7538 29.5067 81.6522 29.8505 81.6522 30.2333C81.6522 30.5223 81.7225 30.7841 81.8632 31.0184C82.0116 31.2528 82.2303 31.4716 82.5194 31.6747C82.8085 31.8778 83.1639 32.0692 83.5858 32.2489C84.0077 32.4286 84.496 32.6044 85.0507 32.7762C85.9803 33.0575 86.7968 33.3739 87.4999 33.7255C88.2108 34.077 88.8046 34.4716 89.2811 34.9091C89.7577 35.3466 90.1171 35.8427 90.3593 36.3973C90.6014 36.952 90.7225 37.5809 90.7225 38.2841C90.7225 39.0262 90.578 39.6903 90.2889 40.2762C89.9999 40.8622 89.5819 41.3583 89.035 41.7645C88.4882 42.1708 87.8358 42.4794 87.078 42.6903C86.3202 42.9012 85.4725 43.0067 84.535 43.0067C83.6913 43.0067 82.8593 42.8973 82.0389 42.6786C81.2186 42.452 80.4725 42.1122 79.8007 41.6591C79.1366 41.2059 78.6053 40.6278 78.2069 39.9247C77.8085 39.2216 77.6093 38.3895 77.6093 37.4286H81.1366C81.1366 37.9598 81.2186 38.4091 81.3827 38.7762C81.5468 39.1434 81.7772 39.4403 82.0741 39.6669C82.3788 39.8934 82.7382 40.0575 83.1522 40.1591C83.5741 40.2606 84.035 40.3114 84.535 40.3114C85.1444 40.3114 85.6444 40.2255 86.035 40.0536C86.4335 39.8817 86.7264 39.6434 86.9139 39.3387C87.1093 39.0341 87.2069 38.6903 87.2069 38.3075ZM96.6288 25.7098V42.7723H93.1132V25.7098H96.6288ZM106.848 25.7098L100.086 34.1356L96.1835 38.3309L95.5507 35.0028L98.1874 31.3934L102.535 25.7098H106.848ZM102.851 42.7723L97.8241 34.8856L100.426 32.7059L107.012 42.7723H102.851ZM119.82 40.0302V42.7723H110.738V40.0302H119.82ZM111.887 25.7098V42.7723H108.371V25.7098H111.887ZM118.637 32.6591V35.3309H110.738V32.6591H118.637ZM119.808 25.7098V28.4637L110.738 28.4637V25.7098L119.808 25.7098ZM129.734 25.7098V42.7723H126.23V25.7098H129.734ZM134.984 25.7098V28.4637H121.062V25.7098H134.984ZM146.551 37.1122H150.055C149.984 38.2606 149.668 39.2802 149.105 40.1708C148.551 41.0614 147.773 41.7567 146.773 42.2567C145.781 42.7567 144.586 43.0067 143.187 43.0067C142.094 43.0067 141.113 42.8192 140.246 42.4442C139.379 42.0614 138.637 41.5145 138.019 40.8036C137.41 40.0927 136.945 39.2333 136.625 38.2255C136.305 37.2177 136.144 36.0887 136.144 34.8387V33.6552C136.144 32.4052 136.308 31.2762 136.637 30.2684C136.973 29.2528 137.449 28.3895 138.066 27.6786C138.691 26.9677 139.437 26.4208 140.305 26.038C141.172 25.6552 142.141 25.4637 143.211 25.4637C144.633 25.4637 145.832 25.7216 146.808 26.2372C147.793 26.7528 148.555 27.4637 149.094 28.37C149.641 29.2762 149.969 30.3075 150.078 31.4637H146.562C146.523 30.7762 146.387 30.1942 146.152 29.7177C145.918 29.2333 145.562 28.87 145.086 28.6278C144.617 28.3778 143.992 28.2528 143.211 28.2528C142.625 28.2528 142.113 28.3622 141.676 28.5809C141.238 28.7997 140.871 29.1317 140.574 29.577C140.277 30.0223 140.055 30.5848 139.906 31.2645C139.766 31.9364 139.695 32.7255 139.695 33.6317V34.8387C139.695 35.7216 139.762 36.4989 139.894 37.1708C140.027 37.8348 140.23 38.3973 140.504 38.8583C140.785 39.3114 141.144 39.6552 141.582 39.8895C142.027 40.1161 142.562 40.2294 143.187 40.2294C143.922 40.2294 144.527 40.1122 145.004 39.8778C145.48 39.6434 145.844 39.2958 146.094 38.8348C146.351 38.3739 146.504 37.7997 146.551 37.1122ZM163.742 32.6591V35.4012L154.836 35.4012V32.6591L163.742 32.6591ZM155.879 25.7098V42.7723H152.363V25.7098H155.879ZM166.25 25.7098V42.7723H162.746V25.7098L166.25 25.7098ZM184.707 25.7098H188.211V36.9833C188.211 38.2958 187.93 39.4012 187.367 40.2997C186.812 41.1981 186.043 41.8739 185.058 42.327C184.082 42.7802 182.957 43.0067 181.683 43.0067C180.41 43.0067 179.277 42.7802 178.285 42.327C177.301 41.8739 176.527 41.1981 175.965 40.2997C175.41 39.4012 175.133 38.2958 175.133 36.9833V25.7098H178.648V36.9833C178.648 37.7489 178.769 38.3739 179.012 38.8583C179.254 39.3427 179.601 39.6981 180.055 39.9247C180.516 40.1512 181.058 40.2645 181.683 40.2645C182.324 40.2645 182.867 40.1512 183.312 39.9247C183.766 39.6981 184.109 39.3427 184.344 38.8583C184.586 38.3739 184.707 37.7489 184.707 36.9833V25.7098ZM197.75 36.6903H193.402V33.9481H197.75C198.422 33.9481 198.969 33.8387 199.391 33.62C199.812 33.3934 200.121 33.0809 200.316 32.6825C200.512 32.2841 200.609 31.8348 200.609 31.3348C200.609 30.827 200.512 30.3544 200.316 29.9169C200.121 29.4794 199.812 29.1278 199.391 28.8622C198.969 28.5966 198.422 28.4637 197.75 28.4637H194.621V42.7723H191.105V25.7098H197.75C199.086 25.7098 200.23 25.952 201.183 26.4364C202.144 26.913 202.879 27.5731 203.387 28.4169C203.894 29.2606 204.148 30.2255 204.148 31.3114C204.148 32.413 203.894 33.3661 203.387 34.1708C202.879 34.9755 202.144 35.5966 201.183 36.0341C200.23 36.4716 199.086 36.6903 197.75 36.6903Z" fill="#E5E5E5"/>
<path fill-rule="evenodd" clip-rule="evenodd" d="M29.0923 5.15414C29.3554 4.78813 29.737 4.52443 30.1724 4.40776L30.4399 4.33608C30.7175 4.2617 31.0126 4.28907 31.2718 4.41326C31.5887 4.56514 31.8235 4.84794 31.9145 5.18744L31.9831 5.44357C32.0519 5.70038 32.0624 5.96934 32.0136 6.23071L31.948 6.58268C31.8961 6.86139 31.809 7.13241 31.689 7.38926L22.6834 26.6588L19.8168 25.2358L28.6334 5.88491C28.7099 5.717 28.8027 5.55698 28.9104 5.40716L29.0923 5.15414ZM17.3413 37.3004C17.7907 37.5104 18.2806 37.608 18.7696 37.5895L19.0445 38.9328C19.1424 39.4108 19.1898 39.9029 19.1859 40.3916C19.1767 41.5303 18.8863 42.6589 18.3418 43.6568C17.7609 44.7215 16.91 45.6146 15.8747 46.2463L12.7722 48.1393C12.5664 48.2648 12.3437 48.3602 12.1109 48.4226L11.8083 48.5037C10.9466 48.7346 10.0335 48.3918 9.53654 47.6509C9.40882 47.4605 9.31337 47.2504 9.25403 47.0289L8.40158 43.8476C8.12843 42.8281 8.10319 41.7581 8.32798 40.7269C8.62582 39.3607 9.34898 38.124 10.3936 37.1945L10.6367 36.9782C11.0029 36.6523 11.3998 36.3625 11.8218 36.1129L13.3694 35.1975C13.6112 35.4721 13.9085 35.6961 14.2445 35.8531L17.3413 37.3004ZM18.1628 26.0723C18.3332 26.0267 18.5144 26.0448 18.6724 26.1232L22.7016 28.1232C22.8888 28.2161 23.0271 28.3851 23.0812 28.587L23.1152 28.714C23.1801 28.9558 23.1536 29.2131 23.0408 29.4367L22.1864 31.131L16.5756 28.4086L17.4683 26.5959C17.59 26.3488 17.8123 26.1662 18.0784 26.095L18.1628 26.0723ZM15.9996 29.5781L21.5994 32.2952L20.7473 33.9849L15.0801 31.4452L15.9996 29.5781ZM14.5038 32.6155L20.1597 35.1502L19.9646 35.537C19.793 35.8773 19.4844 36.1283 19.1163 36.2269C18.7087 36.3362 18.2756 36.2981 17.8933 36.1194L14.7965 34.6721C14.5142 34.5402 14.2852 34.3161 14.1472 34.0369C14.0387 33.8175 14.0385 33.5602 14.1466 33.3407L14.5038 32.6155Z" fill="#E5E5E5"/>
<path fill-rule="evenodd" clip-rule="evenodd" d="M23.6873 28.3301L23.6533 28.2032C23.5508 27.8205 23.2887 27.5003 22.9338 27.3242L26.8274 18.9929C28.4132 18.6787 30.0229 18.4937 31.6408 18.4403L33.649 18.374C35.5753 18.3104 37.4991 18.5629 39.3438 19.1213C41.4414 19.7563 43.4024 20.7765 45.1264 22.1298L46.2958 23.0477C48.0005 24.3858 49.4841 25.9836 50.6924 27.7827L50.7577 27.8799C51.9836 29.7052 52.8996 31.7205 53.4687 33.8443C54.0069 35.8529 54.228 37.9332 54.1241 40.0099L54.0659 41.1736C53.9739 43.0105 53.5977 44.822 52.9507 46.5436C52.1945 48.5555 51.0799 50.4138 49.661 52.0283L47.6631 54.3017C46.277 55.8789 44.7276 57.3049 43.041 58.5558C40.7686 60.2411 38.2673 61.5934 35.6128 62.5719L34.974 62.8073C33.4895 63.3545 31.9563 63.7592 30.3951 64.0158L28.6264 64.3066C26.9294 64.5856 25.1968 64.5659 23.5066 64.2483L22.9194 64.138C21.9834 63.9621 21.0759 63.6588 20.2223 63.2364L19.2587 62.7596C18.2086 62.2401 17.3181 61.4468 16.6813 60.4634C15.9091 59.271 15.5481 57.8587 15.6533 56.442L15.6602 56.3499C15.7302 55.4071 15.9965 54.4894 16.442 53.6555L16.4966 53.5532C17.1241 52.3787 18.0594 51.3972 19.2024 50.7139L22.5236 48.7284L24.5312 47.2845C25.5593 46.545 26.3767 45.5501 26.9027 44.398L27.3339 43.4532C27.7574 42.5256 27.8446 41.4795 27.5807 40.4946C27.3672 39.6979 26.9335 38.9774 26.3294 38.4158L25.8162 37.9388C24.8989 37.0862 23.7647 36.5024 22.5378 36.2513L20.8763 35.9113L20.3636 35.8297C20.4096 35.7613 20.4516 35.6898 20.4891 35.6153L20.9914 34.6192L22.4218 31.7825L23.5653 29.515C23.7501 29.1484 23.7936 28.7266 23.6873 28.3301ZM13.5846 32.6744C13.1584 32.1476 12.8435 31.5337 12.6656 30.8697C12.4724 30.1487 12.4473 29.3931 12.5923 28.6609L12.7081 28.0761C12.9835 26.6853 13.6824 25.4137 14.709 24.4357C15.0037 24.1549 15.3228 23.9009 15.6625 23.6767L16.9219 22.8451C18.2166 21.9903 19.5896 21.2653 21.0209 20.6793L18.9046 25.3242C18.6045 25.1752 18.2603 25.1408 17.9366 25.2275L17.8521 25.2502C17.4046 25.3701 17.0307 25.6772 16.826 26.0927L15.6436 28.4936L14.1391 31.5485L13.5846 32.6744ZM37.0742 32.8969C39.2129 32.3239 40.4821 30.1256 39.909 27.9869C39.336 25.8482 37.1376 24.579 34.999 25.152C32.8602 25.7251 31.591 27.9234 32.1641 30.0621C32.7372 32.2008 34.9355 33.47 37.0742 32.8969ZM47.46 37.6658C48.0888 40.0124 46.6962 42.4245 44.3495 43.0532C42.0029 43.682 39.5909 42.2894 38.9621 39.9428C38.3333 37.5962 39.7259 35.1841 42.0725 34.5553C44.4192 33.9266 46.8312 35.3192 47.46 37.6658ZM40.6641 53.6098C42.8028 53.0367 44.072 50.8384 43.499 48.6997C42.9259 46.561 40.7276 45.2918 38.5889 45.8649C36.4502 46.4379 35.181 48.6362 35.754 50.775C36.3271 52.9137 38.5254 54.1828 40.6641 53.6098ZM33.4916 54.3788C34.0647 56.5175 32.7955 58.7158 30.6568 59.2889C28.5181 59.8619 26.3197 58.5927 25.7467 56.454C25.1736 54.3153 26.4428 52.117 28.5815 51.544C30.7202 50.9709 32.9185 52.2401 33.4916 54.3788Z" fill="#E5E5E5"/>
</svg>
