<svg width="47" height="61" viewBox="0 0 47 61" fill="none" xmlns="http://www.w3.org/2000/svg">
<path fill-rule="evenodd" clip-rule="evenodd" d="M22.1723 0.852209C21.7369 0.968873 21.3553 1.23258 21.0922 1.59858L20.9103 1.85161C20.8026 2.00143 20.7099 2.16144 20.6334 2.32936L11.8167 21.6803L14.6834 23.1032L23.6889 3.83371C23.809 3.57686 23.896 3.30584 23.948 3.02712L24.0136 2.67515C24.0623 2.41379 24.0519 2.14482 23.9831 1.88801L23.9144 1.63189C23.8235 1.29238 23.5887 1.00959 23.2717 0.85771C23.0125 0.733519 22.7175 0.706143 22.4399 0.780529L22.1723 0.852209ZM10.7696 34.0339C10.2805 34.0524 9.7906 33.9549 9.34128 33.7449L6.24445 32.2975C5.90846 32.1405 5.61118 31.9165 5.36932 31.642L3.82179 32.5573C3.39979 32.8069 3.00289 33.0967 2.63662 33.4226L2.39357 33.6389C1.34893 34.5684 0.625763 35.8051 0.327931 37.1714C0.103136 38.2026 0.128372 39.2726 0.401533 40.292L1.25397 43.4734C1.31331 43.6948 1.40876 43.905 1.53648 44.0954C2.03345 44.8363 2.94659 45.179 3.8083 44.9481L4.11087 44.867C4.34368 44.8047 4.56635 44.7092 4.7721 44.5837L7.87462 42.6908C8.90998 42.059 9.76087 41.166 10.3418 40.1013C10.8862 39.1034 11.1767 37.9747 11.1858 36.8361C11.1898 36.3473 11.1423 35.8553 11.0445 35.3772L10.7696 34.0339ZM10.6723 22.5676C10.5143 22.4892 10.3332 22.4711 10.1628 22.5168L10.0783 22.5394C9.81228 22.6107 9.58993 22.7933 9.46825 23.0404L8.57553 24.8531L14.1864 27.5755L15.0408 25.8812C15.1535 25.6576 15.18 25.4003 15.1152 25.1584L15.0812 25.0315C15.0271 24.8295 14.8888 24.6606 14.7015 24.5676L10.6723 22.5676ZM13.5993 28.7396L7.99955 26.0226L7.08004 27.8897L12.7473 30.4294L13.5993 28.7396ZM12.1597 31.5946L6.5037 29.06L6.14655 29.7852C6.03845 30.0047 6.03865 30.262 6.1471 30.4813C6.28519 30.7606 6.51418 30.9846 6.79643 31.1165L9.89325 32.5639C10.2755 32.7425 10.7086 32.7806 11.1162 32.6714C11.4844 32.5727 11.793 32.3218 11.9646 31.9814L12.1597 31.5946ZM15.6532 24.6476L15.6872 24.7745C15.7935 25.1711 15.7501 25.5929 15.5652 25.9595L14.4218 28.227L12.9913 31.0637L12.489 32.0598C12.4515 32.1342 12.4095 32.2058 12.3636 32.2742L12.8762 32.3558L14.5378 32.6958C15.7647 32.9469 16.8989 33.5306 17.8161 34.3832L18.3293 34.8603C18.9335 35.4218 19.3672 36.1423 19.5807 36.9391C19.8446 37.924 19.7573 38.9701 19.3339 39.8976L18.9026 40.8424C18.3767 41.9945 17.5593 42.9894 16.5312 43.7289L14.5236 45.1729L11.2023 47.1583C10.0594 47.8416 9.12401 48.8231 8.49657 49.9976L8.4419 50.1C7.99645 50.9338 7.73016 51.8516 7.66011 52.7943L7.65327 52.8865C7.548 54.3032 7.90901 55.7154 8.68123 56.9078C9.31809 57.8912 10.2085 58.6845 11.2586 59.2041L12.2223 59.6809C13.0759 60.1032 13.9833 60.4066 14.9193 60.5824L15.5066 60.6928C17.1967 61.0103 18.9294 61.0301 20.6263 60.7511L22.395 60.4603C23.9562 60.2036 25.4895 59.799 26.974 59.2518L27.6127 59.0163C30.2673 58.0379 32.7686 56.6855 35.041 55.0002C36.7276 53.7494 38.2769 52.3234 39.6631 50.7461L41.6609 48.4728C43.0798 46.8583 44.1944 45 44.9506 42.988C45.5977 41.2664 45.9739 39.4549 46.0658 37.6181L46.124 36.4544C46.228 34.3776 46.0068 32.2973 45.4687 30.2888C44.8996 28.1649 43.9836 26.1497 42.7577 24.3244L42.6924 24.2271C41.4841 22.4281 40.0004 20.8302 38.2958 19.4922L37.1263 18.5742C35.4024 17.221 33.4414 16.2008 31.3438 15.5658C29.499 15.0073 27.5753 14.7549 25.6489 14.8185L23.6407 14.8848C22.0229 14.9382 20.4131 15.1232 18.8274 15.4374L14.9338 23.7686C15.2886 23.9448 15.5507 24.2649 15.6532 24.6476ZM4.6655 27.3141C4.84344 27.9782 5.15833 28.592 5.58459 29.1188L6.13909 27.9929L7.64353 24.9381L8.82593 22.5372C9.0306 22.1216 9.40459 21.8145 9.85205 21.6946L9.93652 21.672C10.2602 21.5853 10.6044 21.6196 10.9046 21.7686L13.0209 17.1237C11.5896 17.7098 10.2165 18.4347 8.92183 19.2896L7.66241 20.1211C7.32273 20.3454 7.00365 20.5994 6.70894 20.8801C5.68234 21.8581 4.98342 23.1297 4.70802 24.5206L4.59223 25.1053C4.44726 25.8375 4.47233 26.5932 4.6655 27.3141ZM31.909 24.4313C32.482 26.57 31.2128 28.7683 29.0741 29.3414C26.9354 29.9145 24.7371 28.6453 24.1641 26.5066C23.591 24.3679 24.8602 22.1695 26.9989 21.5965C29.1376 21.0234 31.3359 22.2926 31.909 24.4313ZM36.3495 39.4977C38.6961 38.8689 40.0887 36.4569 39.4599 34.1102C38.8312 31.7636 36.4191 30.371 34.0725 30.9998C31.7259 31.6286 30.3333 34.0406 30.962 36.3872C31.5908 38.7339 34.0029 40.1265 36.3495 39.4977ZM35.4989 45.1441C36.072 47.2829 34.8028 49.4812 32.6641 50.0542C30.5254 50.6273 28.327 49.3581 27.754 47.2194C27.1809 45.0807 28.4501 42.8824 30.5888 42.3093C32.7275 41.7363 34.9258 43.0055 35.4989 45.1441ZM22.6567 55.7333C24.7954 55.1603 26.0646 52.9619 25.4915 50.8232C24.9185 48.6845 22.7202 47.4153 20.5815 47.9884C18.4428 48.5615 17.1736 50.7598 17.7466 52.8985C18.3197 55.0372 20.518 56.3064 22.6567 55.7333Z" fill="#E5E5E5"/>
</svg>
